<svg width="48" height="67" viewBox="0 0 48 67" fill="none" xmlns="http://www.w3.org/2000/svg">
<path d="M41.9742 54.4358H35.9941V60.4158H41.9742V54.4358Z" fill="#DBD7FC"/>
<path d="M41.9742 36.4849H35.9941V42.4649H41.9742V36.4849Z" fill="#DBD7FC"/>
<path d="M41.9742 24.5137H35.9941V30.4937H41.9742V24.5137Z" fill="#C0C0F3"/>
<path d="M41.9742 18.5227H35.9941V24.5137H41.9742V18.5227Z" fill="#DBD7FC"/>
<path d="M41.9742 12.5427H35.9941V18.5227H41.9742V12.5427Z" fill="#C0C0F3"/>
<path d="M35.9939 42.4648H30.0029V48.4558H35.9939V42.4648Z" fill="#DBD7FC"/>
<path d="M35.9941 42.4648V48.4558V54.4359H41.9742V48.4558V42.4648H35.9941Z" fill="#C0C0F3"/>
<path d="M24.0229 54.4358V60.4158H30.0029H35.9939V54.4358H30.0029H24.0229Z" fill="#C0C0F3"/>
<path d="M30.0029 6.55176H24.0229V12.5428H30.0029V6.55176Z" fill="#DBD7FC"/>
<path d="M24.023 54.4358H18.043V60.4158H24.023V54.4358Z" fill="#DBD7FC"/>
<path d="M35.9943 30.4937V24.5138V18.5228V12.5428H30.0033H24.0233V6.55176H18.0433V12.5428H12.0523V18.5228H18.0433H24.0233H30.0033V24.5138H24.0233H18.0433H12.0523V30.4937H18.0433H24.0233H30.0033V36.4847H24.0233H18.0433H12.0523V30.4937H6.07227V36.4847V42.4648V48.4557V54.4358V60.4157H12.0523H18.0433V54.4358H24.0233H30.0033H35.9943V48.4557H30.0033V42.4648H35.9943V36.4847H41.9743V30.4937H35.9943ZM24.0233 48.4557H18.0433H12.0523V42.4648H18.0433H24.0233V48.4557Z" fill="#EAE8FC"/>
<path d="M12.0523 6.55176H6.07227V12.5417V18.5218V24.5138V30.4937H12.0523V24.5138V18.5218V12.5417H18.0433V6.55176H12.0523Z" fill="white"/>
<path d="M24.0233 42.4648H18.0432H12.0522V48.4558H18.0432H24.0233H30.0032V42.4648H24.0233Z" fill="#473D61"/>
<path d="M30.0032 30.4937H24.0233H18.0432H12.0522V36.4846H18.0432H24.0233H30.0032H35.9942V30.4937H30.0032Z" fill="#473D61"/>
<path d="M30.0032 18.5217H24.0233H18.0432H12.0522V24.5137H18.0432H24.0233H30.0032H35.9942V18.5217H30.0032Z" fill="#473D61"/>
<path d="M41.9741 12.5417V18.5218V24.5138V30.4937V36.4847V42.4648V48.4557V54.4358V60.4157H47.9651V54.4358V48.4557V42.4648V36.4847V30.4937V24.5138V18.5218V12.5417H41.9741Z" fill="#473D61"/>
<path d="M30.0033 60.4158H24.0233H18.0433H12.0523H6.07227V66.4068H12.0523H18.0433H24.0233H30.0033H35.9943H41.9743V60.4158H35.9943H30.0033Z" fill="#473D61"/>
<path d="M35.9939 12.5417H41.9739V6.55176H35.9939H30.0029V12.5417H35.9939Z" fill="#473D61"/>
<path d="M6.07205 48.4557V42.4648V36.4847V30.4937V24.5138V18.5218V12.5417V6.55176H0.0810547V12.5417V18.5218V24.5138V30.4937V36.4847V42.4648V48.4557V54.4358V60.4157H6.07205V54.4358V48.4557Z" fill="#473D61"/>
<path d="M18.0433 6.55179H24.0233H30.0033V0.570801H24.0233H18.0433H12.0523H6.07227V6.55179H12.0523H18.0433Z" fill="#473D61"/>
</svg>
