<svg width="73" height="73" viewBox="0 0 73 73" fill="none" xmlns="http://www.w3.org/2000/svg">
<path d="M67.5719 46.9478H62.3779V52.1508H67.5719V46.9478Z" fill="#8E8EC7"/>
<path d="M67.5719 20.9619H62.3779V26.1559H67.5719V20.9619Z" fill="#8E8EC7"/>
<path d="M62.3783 52.1509H57.1753V57.3449H62.3783V52.1509Z" fill="#8E8EC7"/>
<path d="M62.3783 41.7549H57.1753V46.9479H62.3783V41.7549Z" fill="#8E8EC7"/>
<path d="M62.3783 15.7678H57.1753V20.9618H62.3783V15.7678Z" fill="#8E8EC7"/>
<path d="M51.9823 52.1509H46.7793V57.3449H51.9823V52.1509Z" fill="#8E8EC7"/>
<path d="M46.778 5.37183H41.585V10.5658H46.778V5.37183Z" fill="#8E8EC7"/>
<path d="M36.3911 62.5479V67.7408H41.5851H46.7791V62.5479H41.5851H36.3911Z" fill="#8E8EC7"/>
<path d="M57.175 20.9618V15.7678H51.981V20.9618V26.1548H57.175V31.3578H62.378V26.1548V20.9618H57.175Z" fill="#C0C0F3"/>
<path d="M57.175 41.7549H51.981V46.9479V52.1509V57.3449H57.175V52.1509H62.378V46.9479H57.175V41.7549Z" fill="#C0C0F3"/>
<path d="M57.175 31.3579H51.981V36.5519H57.175V31.3579Z" fill="#C0C0F3"/>
<path d="M46.778 57.3447H41.585V62.5477H46.778V57.3447Z" fill="#C0C0F3"/>
<path d="M46.778 10.5649H41.585V15.7679H46.778V10.5649Z" fill="#C0C0F3"/>
<path d="M41.5851 5.37183H36.3911V10.5658H41.5851V5.37183Z" fill="#C0C0F3"/>
<path d="M36.392 62.5479H31.189V67.7419H36.392V62.5479Z" fill="#C0C0F3"/>
<path d="M25.995 26.155H20.792V31.358H25.995V26.155Z" fill="white"/>
<path d="M25.995 15.7681H20.792V20.9621H25.995V15.7681Z" fill="white"/>
<path d="M20.7921 20.9619H15.5991V26.1559H20.7921V20.9619Z" fill="white"/>
<path d="M62.3783 26.1548V31.3578H57.1753V36.5518V41.7548H62.3783V46.9478H67.5713V41.7548V36.5518V31.3578V26.1548H62.3783Z" fill="#65658F"/>
<path d="M57.1753 15.7678V10.5648H51.9813V5.37183H46.7793V10.5648V15.7678H51.9813H57.1753Z" fill="#65658F"/>
<path d="M46.7793 57.3447V62.5477V67.7407H51.9813V62.5477H57.1753V57.3447H51.9813H46.7793Z" fill="#65658F"/>
<path d="M46.7791 36.5518V31.3578H41.5851V26.1548H36.3911H31.1891V31.3578H25.9951V36.5518V41.7548H31.1891V46.9478H36.3911H41.5851V41.7548H46.7791V36.5518Z" fill="#65658F"/>
<path d="M25.9951 15.7678V10.5648V5.37183H20.7921V10.5648H15.5991V15.7678H20.7921H25.9951Z" fill="#65658F"/>
<path d="M15.5991 57.3447V62.5477H20.7921V67.7407H25.9951V62.5477V57.3447H20.7921H15.5991Z" fill="#65658F"/>
<path d="M15.5992 36.5518V31.3578H10.3961V26.1548H5.20215V31.3578V36.5518V41.7548V46.9478H10.3961V41.7548H15.5992V36.5518Z" fill="#65658F"/>
<path d="M57.1751 31.3578V26.1548H51.9811V20.9618V15.7678H46.7791H41.5851V10.5648H36.3911V5.37183H31.1891H25.9951V10.5648V15.7678V20.9618H20.7921V26.1548H25.9951V31.3578H31.1891V26.1548H36.3911H41.5851V31.3578H46.7791V36.5518V41.7548H41.5851V46.9478H36.3911H31.1891V41.7548H25.9951V36.5518V31.3578H20.7921V26.1548H15.5992V20.9618H20.7921V15.7678H15.5992H10.3961V20.9618H5.20215V26.1548H10.3961V31.3578H15.5992V36.5518V41.7548H10.3961V46.9478H5.20215V52.1508H10.3961V57.3448H15.5992H20.7921H25.9951V62.5478V67.7408H31.1891V62.5478H36.3911H41.5851V57.3448H46.7791V52.1508H51.9811V46.9478V41.7548H57.1751V36.5518H51.9811V31.3578H57.1751Z" fill="#EAE8FC"/>
<path d="M57.175 5.37183H51.981V10.5658H57.175V5.37183Z" fill="#473D61"/>
<path d="M62.3778 10.5649H57.1748V15.7679H62.3778V10.5649Z" fill="#473D61"/>
<path d="M67.5719 15.7681H62.3779V20.9621H67.5719V15.7681Z" fill="#473D61"/>
<path d="M67.5713 20.9619V26.1549V31.3579V36.5519V41.7549V46.9479V52.1509H72.7743V46.9479V41.7549V36.5519V31.3579V26.1549V20.9619H67.5713Z" fill="#473D61"/>
<path d="M67.5719 52.1509H62.3779V57.3449H67.5719V52.1509Z" fill="#473D61"/>
<path d="M62.3778 57.345H57.1748V62.548H62.3778V57.345Z" fill="#473D61"/>
<path d="M57.175 62.5479H51.981V67.7419H57.175V62.5479Z" fill="#473D61"/>
<path d="M41.585 67.741H36.391H31.189H25.995H20.792V72.944H25.995H31.189H36.391H41.585H46.779H51.981V67.741H46.779H41.585Z" fill="#473D61"/>
<path d="M20.7931 62.5479H15.5991V67.7419H20.7931V62.5479Z" fill="#473D61"/>
<path d="M15.599 57.345H10.396V62.548H15.599V57.345Z" fill="#473D61"/>
<path d="M10.3961 52.1509H5.20215V57.3449H10.3961V52.1509Z" fill="#473D61"/>
<path d="M5.20203 41.7549V36.5519V31.3579V26.1549V20.9619H-0.000976562V26.1549V31.3579V36.5519V41.7549V46.9479V52.1509H5.20203V46.9479V41.7549Z" fill="#473D61"/>
<path d="M10.3961 15.7681H5.20215V20.9621H10.3961V15.7681Z" fill="#473D61"/>
<path d="M15.599 10.5649H10.396V15.7679H15.599V10.5649Z" fill="#473D61"/>
<path d="M20.7931 5.37183H15.5991V10.5658H20.7931V5.37183Z" fill="#473D61"/>
<path d="M31.189 5.37193H36.391H41.585H46.779H51.981V0.168945H46.779H41.585H36.391H31.189H25.995H20.792V5.37193H25.995H31.189Z" fill="#473D61"/>
</svg>
