<svg width="425" height="68" viewBox="0 0 425 68" fill="none" xmlns="http://www.w3.org/2000/svg">
<g filter="url(#filter0_d_676_134)">
<path d="M41.725 58.4V52H35.325V42.4H28.925V32.8H22.525V58.4H6.525V13.6H0.125V7.2H6.525V0.799999H19.325V7.2H25.725V16.8H28.925V23.2H35.325V0.799999H44.925V7.2H51.325V58.4H41.725ZM97.0375 58.4H65.0375V52H58.6375V7.2H65.0375V0.799999H90.6375L97.0375 0.735996V13.6H90.6375V20H74.6375V26.4H87.4375V32.8H74.6375V39.2H90.6375V45.6H97.0375V58.4ZM140.35 58.4H108.35V52H101.95V7.2H108.35V0.799999H133.95L140.35 0.735996V13.6H133.95V20H117.95V26.4H130.75V32.8H117.95V39.2H133.95V45.6H140.35V58.4ZM190.063 58.4H177.263V52H170.863V45.6H167.663V39.2H161.263V58.4H151.663V52L145.263 51.936V7.2H151.663V0.799999H161.263V16.8H167.663V10.4H174.062V0.799999H186.863V13.6H183.663V20H177.263V26.4H170.863V32.8H177.263V39.2H183.663V45.6H190.063V58.4ZM197.725 45.6H191.325V13.6H197.725V7.2H210.525V0.799999H223.325V7.2H236.125V13.6H242.525V45.6H236.125V52H226.525V58.4H207.325V52H197.725V45.6ZM213.725 20H207.325V32.8H213.725V39.2H220.125V32.8H226.525V20H220.125V13.6H213.725V20ZM262.465 36V39.2H268.865V45.6H272.065V52H268.865V58.4H262.465V61.6H256.065V58.4H249.665V52H246.465V45.6H249.665V39.2H256.065V36H262.465ZM284.913 58.4V52H278.513V7.2H284.913V0.799999H313.713V20H297.713V26.4H307.312V39.2H297.713V58.4H284.913ZM370.338 0.799999V45.6H363.938V52H351.138V58.4H338.338V52H319.138V7.2H325.538V0.799999H338.338V29.6H341.538V36H347.938V29.6H351.138V0.799999H370.338ZM415.163 58.4V52H408.763V42.4H402.363V32.8H395.963V58.4H379.963V13.6H373.562V7.2H379.963V0.799999H392.763V7.2H399.163V16.8H402.363V23.2H408.763V0.799999H418.363V7.2H424.763V58.4H415.163Z" fill="white"/>
</g>
<defs>
<filter id="filter0_d_676_134" x="0.125" y="0.736084" width="424.638" height="66.864" filterUnits="userSpaceOnUse" color-interpolation-filters="sRGB">
<feFlood flood-opacity="0" result="BackgroundImageFix"/>
<feColorMatrix in="SourceAlpha" type="matrix" values="0 0 0 0 0 0 0 0 0 0 0 0 0 0 0 0 0 0 127 0" result="hardAlpha"/>
<feOffset dy="6"/>
<feComposite in2="hardAlpha" operator="out"/>
<feColorMatrix type="matrix" values="0 0 0 0 0 0 0 0 0 0 0 0 0 0 0 0 0 0 1 0"/>
<feBlend mode="normal" in2="BackgroundImageFix" result="effect1_dropShadow_676_134"/>
<feBlend mode="normal" in="SourceGraphic" in2="effect1_dropShadow_676_134" result="shape"/>
</filter>
</defs>
</svg>
