<svg width="395" height="65" viewBox="0 0 395 65" fill="none" xmlns="http://www.w3.org/2000/svg">
<g filter="url(#filter0_d_676_134)">
<path d="M41.725 58.4V52H35.325V42.4H28.925V32.8H22.525V58.4H6.525V13.6H0.125V7.2H6.525V0.799999H19.325V7.2H25.725V16.8H28.925V23.2H35.325V0.799999H44.925V7.2H51.325V58.4H41.725ZM97.0375 58.4H65.0375V52H58.6375V7.2H65.0375V0.799999H90.6375L97.0375 0.735996V13.6H90.6375V20H74.6375V26.4H87.4375V32.8H74.6375V39.2H90.6375V45.6H97.0375V58.4ZM140.35 58.4H108.35V52H101.95V7.2H108.35V0.799999H133.95L140.35 0.735996V13.6H133.95V20H117.95V26.4H130.75V32.8H117.95V39.2H133.95V45.6H140.35V58.4ZM190.063 58.4H177.263V52H170.863V45.6H167.663V39.2H161.263V58.4H151.663V52L145.263 51.936V7.2H151.663V0.799999H161.263V16.8H167.663V10.4H174.062V0.799999H186.863V13.6H183.663V20H177.263V26.4H170.863V32.8H177.263V39.2H183.663V45.6H190.063V58.4ZM197.725 45.6H191.325V13.6H197.725V7.2H210.525V0.799999H223.325V7.2H236.125V13.6H242.525V45.6H236.125V52H226.525V58.4H207.325V52H197.725V45.6ZM213.725 20H207.325V32.8H213.725V39.2H220.125V32.8H226.525V20H220.125V13.6H213.725V20ZM254.913 58.4V52H248.513V7.2H254.913V0.799999H283.713V20H267.713V26.4H277.312V39.2H267.713V58.4H254.913ZM340.338 0.799999V45.6H333.938V52H321.138V58.4H308.338V52H289.138V7.2H295.538V0.799999H308.338V29.6H311.538V36H317.938V29.6H321.138V0.799999H340.338ZM385.163 58.4V52H378.763V42.4H372.363V32.8H365.963V58.4H349.963V13.6H343.562V7.2H349.963V0.799999H362.763V7.2H369.163V16.8H372.363V23.2H378.763V0.799999H388.363V7.2H394.763V58.4H385.163Z" fill="white"/>
</g>
<defs>
<filter id="filter0_d_676_134" x="0.125" y="0.736084" width="394.637" height="63.6638" filterUnits="userSpaceOnUse" color-interpolation-filters="sRGB">
<feFlood flood-opacity="0" result="BackgroundImageFix"/>
<feColorMatrix in="SourceAlpha" type="matrix" values="0 0 0 0 0 0 0 0 0 0 0 0 0 0 0 0 0 0 127 0" result="hardAlpha"/>
<feOffset dy="6"/>
<feComposite in2="hardAlpha" operator="out"/>
<feColorMatrix type="matrix" values="0 0 0 0 0 0 0 0 0 0 0 0 0 0 0 0 0 0 1 0"/>
<feBlend mode="normal" in2="BackgroundImageFix" result="effect1_dropShadow_676_134"/>
<feBlend mode="normal" in="SourceGraphic" in2="effect1_dropShadow_676_134" result="shape"/>
</filter>
</defs>
</svg>
