<svg width="75" height="76" viewBox="0 0 75 76" fill="none" xmlns="http://www.w3.org/2000/svg">
<path d="M45.9863 34.8889H51.7263V29.1489V23.4199H45.9863V29.1489V34.8889Z" fill="#F0916C"/>
<path d="M51.7263 11.9509H45.9863V17.6799H51.7263V11.9509Z" fill="#F0916C"/>
<path d="M40.2573 63.5559V69.2859H45.9863H51.7263V63.5559H45.9863H40.2573Z" fill="#F0916C"/>
<path d="M45.9863 34.8889H40.2573V40.6179H45.9863V34.8889Z" fill="#F0916C"/>
<path d="M45.9863 17.6799H40.2573V23.4199H45.9863V17.6799Z" fill="#F0916C"/>
<path d="M40.2571 40.6179H34.5171V46.3579H40.2571V40.6179Z" fill="#C47565"/>
<path d="M51.7263 17.6799H45.9863V23.4199H51.7263V17.6799Z" fill="#FFAF7C"/>
<path d="M51.7263 6.21191H45.9863V11.9519H51.7263V6.21191Z" fill="#FFAF7C"/>
<path d="M40.2568 29.1489V34.8889H45.9858V29.1489V23.4199H40.2568V29.1489Z" fill="#FFAF7C"/>
<path d="M45.9858 11.9509H40.2568V17.6799H45.9858V11.9509Z" fill="#FFAF7C"/>
<path d="M40.2571 63.5559H34.5171V69.2849H40.2571V63.5559Z" fill="#FFAF7C"/>
<path d="M40.2571 34.8889H34.5171V40.6179H40.2571V34.8889Z" fill="#FFAF7C"/>
<path d="M28.7883 63.5559H23.0483V69.2849H28.7883V63.5559Z" fill="#FFEAC8"/>
<path d="M40.2573 6.21191H34.5173H28.7883V11.9509V17.6799V23.4199H23.0483V29.1489V34.8889H28.7883V40.6179H34.5173V34.8889H40.2573V29.1489V23.4199V17.6799V11.9509H45.9863V6.21191H40.2573Z" fill="#FFD393"/>
<path d="M34.5176 52.0869V57.8169V63.5559H40.2576V57.8169V52.0869V46.3579H34.5176V52.0869Z" fill="#FFD393"/>
<path d="M34.5171 63.5559H28.7881V69.2849H34.5171V63.5559Z" fill="#FFD393"/>
<path d="M28.7883 17.6799H23.0483V23.4199H28.7883V17.6799Z" fill="#FFEAC8"/>
<path d="M28.7883 11.9509H23.0483V17.6799H28.7883V11.9509Z" fill="#FFEAC8"/>
<path d="M28.7883 6.21191H23.0483V11.9519H28.7883V6.21191Z" fill="#FFEAC8"/>
<path d="M11.5791 23.4199H5.8501V29.1489H11.5791V23.4199Z" fill="#473D61"/>
<path d="M68.9241 23.4199H63.1841V29.1489H68.9241V23.4199Z" fill="#473D61"/>
<path d="M68.9241 11.9509H63.1841H57.455V6.21191H51.7261V11.9509V17.6799V23.4199V29.1489V34.8889H57.455H63.1841V29.1489H57.455V23.4199V17.6799H63.1841H68.9241V23.4199H74.6531V17.6799V11.9509H68.9241Z" fill="#473D61"/>
<path d="M51.7263 34.8889H45.9863V40.6179H51.7263V34.8889Z" fill="#473D61"/>
<path d="M40.2573 46.3579V52.0869V57.8169V63.5559H45.9863H51.7263V57.8169H45.9863V52.0869V46.3579V40.6179H40.2573V46.3579Z" fill="#473D61"/>
<path d="M57.455 63.5559H51.7261V69.2849H57.455V63.5559Z" fill="#473D61"/>
<path d="M40.2573 69.2859H34.5173H28.7883H23.0483V75.0249H28.7883H34.5173H40.2573H45.9863H51.7263V69.2859H45.9863H40.2573Z" fill="#473D61"/>
<path d="M23.0483 63.5559H17.3193V69.2849H23.0483V63.5559Z" fill="#473D61"/>
<path d="M34.5173 63.5559V57.8169V52.0869V46.3579V40.6179H28.7883V46.3579V52.0869V57.8169H23.0483V63.5559H28.7883H34.5173Z" fill="#473D61"/>
<path d="M28.7883 34.8889H23.0483V40.6179H28.7883V34.8889Z" fill="#473D61"/>
<path d="M23.0481 23.4199V17.6799V11.9509V6.21191H17.3191V11.9509H11.5791H5.85013H0.120117V17.6799V23.4199H5.85013V17.6799H11.5791H17.3191V23.4199V29.1489H11.5791V34.8889H17.3191H23.0481V29.1489V23.4199Z" fill="#473D61"/>
<path d="M34.5173 6.21193H40.2573H45.9863H51.7263V0.481934H45.9863H40.2573H34.5173H28.7883H23.0483V6.21193H28.7883H34.5173Z" fill="#473D61"/>
</svg>
