<svg xmlns="http://www.w3.org/2000/svg"  viewBox="0 0 32 32" width="64px" height="64px" baseProfile="basic"><polygon fill="#706d67" points="25,6 25,4 7,4 7,6 4,6 4,26 7,26 7,28 25,28 25,26 28,26 28,6"/><rect width="2" height="2" x="10" y="17" fill="#589bd4"/><rect width="2" height="2" x="12" y="15" fill="#589bd4"/><rect width="2" height="2" x="14" y="21" fill="#589bd4"/><rect width="2" height="2" x="16" y="7" fill="#589bd4"/><rect width="2" height="2" x="14" y="17" fill="#c21057"/><rect width="2" height="2" x="16" y="23" fill="#c21057"/><rect width="2" height="2" x="18" y="9" fill="#c21057"/><rect width="2" height="2" x="20" y="11" fill="#c21057"/><rect width="2" height="2" x="16" y="7" fill="#589bd4"/><rect width="2" height="4" x="12" y="19" fill="#c21057"/><rect width="2" height="8" x="18" y="15" fill="#c21057"/><rect width="2" height="2" x="22" y="13" fill="#c21057"/><rect width="4" height="2" x="12" y="23" fill="#e6e5e5"/><rect width="2" height="4" x="10" y="19" fill="#e6e5e5"/><rect width="2" height="2" x="12" y="17" fill="#e6e5e5"/><polygon fill="#e6e5e5" points="20,13 20,11 18,11 18,9 16,9 16,23 18,23 18,15 22,15 22,13"/></svg>