<svg xmlns="http://www.w3.org/2000/svg"  viewBox="0 0 32 32" width="64px" height="64px" baseProfile="basic">
<rect width="8" height="2" x="3" y="2" fill="#ffffff"/>
<rect width="8" height="2" x="21" y="28" fill="#ffffff"/>
<rect width="2" height="3" x="5" y="4" fill="#ffffff"/>
<rect width="2" height="3" x="7" y="7" fill="#ffffff"/>
<rect width="2" height="3" x="11" y="4" fill="#ffffff"/>
<rect width="2" height="3" x="9" y="10" fill="#ffffff"/>
<rect width="2" height="3" x="13" y="7" fill="#ffffff"/>
<rect width="2" height="3" x="11" y="13" fill="#ffffff"/>
<rect width="2" height="3" x="15" y="10" fill="#ffffff"/>
<rect width="2" height="3" x="13" y="16" fill="#ffffff"/>
<rect width="2" height="3" x="17" y="13" fill="#ffffff"/>
<rect width="2" height="3" x="19" y="10" fill="#ffffff"/>
<rect width="2" height="3" x="11" y="19" fill="#ffffff"/>
<rect width="2" height="3" x="9" y="22" fill="#ffffff"/>
<rect width="2" height="3" x="7" y="25" fill="#ffffff"/>
<rect width="2" height="2" x="5" y="28" fill="#ffffff"/>
<rect width="2" height="3" x="21" y="7" fill="#ffffff"/>
<rect width="2" height="3" x="23" y="4" fill="#ffffff"/>
<rect width="2" height="2" x="25" y="2" fill="#ffffff"/>
<rect width="2" height="3" x="15" y="19" fill="#ffffff"/>
<rect width="2" height="3" x="19" y="16" fill="#ffffff"/>
<rect width="2" height="3" x="17" y="22" fill="#ffffff"/>
<rect width="2" height="3" x="21" y="19" fill="#ffffff"/>
<rect width="2" height="3" x="19" y="25" fill="#ffffff"/>
<rect width="2" height="3" x="23" y="22" fill="#ffffff"/>
<rect width="2" height="3" x="25" y="25" fill="#ffffff"/>
</svg>